<?xml version="1.0" standalone="no"?>
<!DOCTYPE svg PUBLIC "-//W3C//DTD SVG 20010904//EN"
 "http://www.w3.org/TR/2001/REC-SVG-20010904/DTD/svg10.dtd">
<svg version="1.0" xmlns="http://www.w3.org/2000/svg"
 width="1280.000000pt" height="1280.000000pt" viewBox="0 0 1280.000000 1280.000000"
 preserveAspectRatio="xMidYMid meet">
<g transform="translate(0.000000,1280.000000) scale(0.100000,-0.100000)"
fill="#000000" stroke="none">
<path d="M6495 10280 c-158 -18 -511 -82 -629 -115 -393 -108 -762 -300 -1101
-571 -144 -116 -411 -382 -515 -514 -289 -365 -471 -765 -544 -1194 -30 -170
-50 -361 -72 -681 -12 -171 -20 -243 -30 -251 -7 -6 -104 -18 -216 -28 -326
-28 -370 -39 -429 -103 -51 -55 -59 -85 -84 -321 -13 -125 -126 -1190 -250
-2367 -133 -1260 -224 -2159 -221 -2187 12 -111 87 -210 182 -241 27 -9 128
-25 224 -35 163 -18 216 -19 765 -11 325 5 1425 18 2445 29 3893 43 4407 50
4441 62 79 27 201 134 237 209 48 100 51 190 13 444 -11 72 -32 240 -46 375
-14 135 -45 416 -69 625 -24 209 -133 1156 -241 2105 -108 949 -203 1754 -212
1789 -21 85 -63 139 -136 175 -80 40 -158 43 -436 17 -144 -14 -228 -18 -234
-12 -6 6 -20 126 -33 268 -57 632 -133 958 -301 1286 -83 161 -294 440 -432
569 -371 351 -840 573 -1397 664 -117 18 -555 27 -679 14z m376 -1340 c259
-26 525 -124 709 -260 195 -145 367 -396 415 -605 8 -33 18 -161 24 -285 16
-350 17 -400 2 -409 -7 -4 -72 -13 -144 -19 -137 -12 -2273 -207 -2644 -242
-117 -11 -231 -20 -253 -20 l-40 0 0 78 c2 512 151 915 454 1230 242 251 567
431 877 486 317 55 423 63 600 46z m-173 -3458 c23 -13 76 -55 117 -94 88 -83
105 -124 105 -254 0 -113 -14 -173 -65 -280 -49 -101 -150 -220 -225 -264 -64
-38 -121 -91 -137 -127 -7 -18 -13 -55 -13 -83 0 -27 38 -244 85 -482 47 -238
82 -435 77 -439 -4 -4 -116 -11 -249 -15 l-243 -7 0 22 c0 12 30 167 66 344
72 352 82 457 52 513 -27 50 -168 194 -225 231 -84 53 -133 174 -133 323 0
100 22 185 71 284 58 115 99 166 182 229 137 104 209 128 377 124 96 -2 122
-6 158 -25z"/>
</g>
</svg>
